<?xml version="1.0" encoding="utf-8"?>
<!-- Generator: Adobe Illustrator 18.0.0, SVG Export Plug-In . SVG Version: 6.00 Build 0)  -->
<!DOCTYPE svg PUBLIC "-//W3C//DTD SVG 1.1//EN" "http://www.w3.org/Graphics/SVG/1.1/DTD/svg11.dtd">
<svg version="1.1" id="Layer_1" xmlns="http://www.w3.org/2000/svg" xmlns:xlink="http://www.w3.org/1999/xlink" x="0px" y="0px"
	 viewBox="56.4 56.6 308.2 482.1" enable-background="new 56.4 56.6 308.2 482.1" xml:space="preserve">
<path fill="#F7C024" d="M349,259.6L161.7,72.3c-10.1-10.1-23.5-15.7-37.9-15.7S96,62.2,86,72.3L72.1,86.1
	c-20.9,20.9-20.8,54.8,0,75.7l135.7,135.7L72,433.5c-10.1,10.1-15.6,23.5-15.6,37.8c0,14.3,5.6,27.7,15.7,37.9L85.8,523
	c10.1,10.1,23.5,15.7,37.8,15.7s27.8-5.6,37.8-15.7L349,335.4c10.1-10.1,15.6-23.6,15.6-37.9C364.6,283.2,359.1,269.8,349,259.6z"/>
</svg>
