<?xml version="1.0" encoding="utf-8"?>
<!-- Generator: Adobe Illustrator 18.0.0, SVG Export Plug-In . SVG Version: 6.00 Build 0)  -->
<!DOCTYPE svg PUBLIC "-//W3C//DTD SVG 1.1//EN" "http://www.w3.org/Graphics/SVG/1.1/DTD/svg11.dtd">
<svg version="1.1" id="Capa_1" xmlns="http://www.w3.org/2000/svg" xmlns:xlink="http://www.w3.org/1999/xlink" x="0px" y="0px"
	 viewBox="64.7 0 70.7 100" enable-background="new 64.7 0 70.7 100" xml:space="preserve">
<g>
	<g>
		<polygon fill="#FFFFFF" points="66.4,19.7 84.4,19.7 84.4,1.7 		"/>
	</g>
</g>
<g>
	<g>
		<path fill="#FFFFFF" d="M90.3,0v25.6H64.7V100h70.7V0H90.3z M98.6,16.6c0.4-0.9,0.9-1.7,1.5-2.4c0.7-0.7,1.5-1.3,2.4-1.7
			c1-0.4,2.1-0.7,3.3-0.7c1.5,0,2.8,0.3,3.8,0.9c1.1,0.6,1.9,1.4,2.4,2.4l-3.2,2.3c-0.1-0.4-0.3-0.7-0.6-0.9
			c-0.2-0.2-0.5-0.4-0.8-0.6c-0.3-0.1-0.6-0.2-0.9-0.3s-0.6-0.1-0.9-0.1c-0.6,0-1.1,0.1-1.6,0.4c-0.4,0.2-0.8,0.5-1.1,0.9
			c-0.3,0.4-0.5,0.8-0.6,1.3s-0.2,1-0.2,1.4c0,0.5,0.1,1,0.2,1.5c0.2,0.5,0.4,0.9,0.7,1.3c0.3,0.4,0.7,0.7,1.1,0.9
			c0.4,0.2,0.9,0.3,1.5,0.3c0.3,0,0.6,0,0.9-0.1s0.6-0.2,0.9-0.3c0.3-0.2,0.5-0.3,0.8-0.6c0.2-0.2,0.4-0.5,0.5-0.9l3.4,2
			c-0.2,0.6-0.6,1.1-1,1.5c-0.5,0.4-1,0.8-1.6,1.1c-0.6,0.3-1.2,0.5-1.9,0.7c-0.7,0.2-1.3,0.2-2,0.2c-1.1,0-2.2-0.2-3.1-0.7
			s-1.7-1-2.4-1.8c-0.7-0.7-1.2-1.6-1.6-2.5s-0.6-1.9-0.6-2.9C98.1,18.5,98.3,17.5,98.6,16.6z M119,85.4H81v-5.9h38V85.4z M119,72.4
			H81v-5.9h38V72.4z M119,59.3H81v-5.9h38V59.3z M119,46.3H81v-5.9h38V46.3z M121.3,27.1h-3.5l-5.7-15.2h4.4l3,10l2.9-10h4.4
			L121.3,27.1z"/>
	</g>
</g>
</svg>
