<?xml version="1.0" encoding="utf-8"?>
<!-- Generator: Adobe Illustrator 18.0.0, SVG Export Plug-In . SVG Version: 6.00 Build 0)  -->
<!DOCTYPE svg PUBLIC "-//W3C//DTD SVG 1.1//EN" "http://www.w3.org/Graphics/SVG/1.1/DTD/svg11.dtd">
<svg version="1.1" id="Calque_1" xmlns="http://www.w3.org/2000/svg" xmlns:xlink="http://www.w3.org/1999/xlink" x="0px" y="0px"
	 viewBox="0 0 200 100" enable-background="new 0 0 200 100" xml:space="preserve">
<path fill="#FFFFFF" d="M135.4,0H64.6C56.6,0,50,6.6,50,14.6v70.7c0,8.1,6.6,14.6,14.6,14.6h70.7c8.1,0,14.6-6.6,14.6-14.6V14.6
	C150,6.6,143.4,0,135.4,0z M85.4,79.3H73.6v-41h11.7V79.3z M85.4,32.4H73.6V20.7h11.7V32.4z M126.4,79.3h-11.7V55.9
	c0-3.2-2.6-5.9-5.9-5.9s-5.9,2.6-5.9,5.9v23.4H91.2v-41h11.7v2.2c3.1-1,5.1-2.2,8.8-2.2c7.9,0,14.6,7.1,14.6,15.6V79.3z"/>
</svg>
