<?xml version="1.0" encoding="utf-8"?>
<!-- Generator: Adobe Illustrator 18.0.0, SVG Export Plug-In . SVG Version: 6.00 Build 0)  -->
<!DOCTYPE svg PUBLIC "-//W3C//DTD SVG 1.1//EN" "http://www.w3.org/Graphics/SVG/1.1/DTD/svg11.dtd">
<svg version="1.1" id="Calque_1" xmlns="http://www.w3.org/2000/svg" xmlns:xlink="http://www.w3.org/1999/xlink" x="0px" y="0px"
	 viewBox="0 0 512 512" enable-background="new 0 0 512 512" xml:space="preserve">
<path id="Shape" fill="#FFFFFF" d="M458.5,270.4c-3.1-2.5-7.4-2.5-10.5,0l-17.6,14.1L412.1,204c-1.3-5.6-5.3-10.1-10.7-12.1
	c-209.8-76.2-169.7-61-212-79.2l117.5-80.7c2.9-1.8,4.4-5.1,3.8-8.5c-0.6-3.3-3-6-6.3-6.8L245.7,0c-2.1-0.6-4.3-0.3-6.2,0.7
	C129,59.4,98.6,75.1,96.8,76.2s5.4-5.5-76.1,68.8c-6.1,5.5-9.2,13.7-8.1,21.9c1.1,8.2,6.1,15.3,13.4,19.1l94,46.2l26.4,51.6
	l-45,107.3c-1.1,2.6-0.8,5.6,0.7,7.9c1.6,2.3,4.2,3.8,7,3.8c1.8,0-4.8,1.8,105.9-32.2l25.2,34l-78.5,84.9c-2.3,2.4-2.9,6-1.5,9.1
	c1.3,3.1,4.3,5,7.7,5c164.4,0,153.2,0.9,156.6-2l122-105.8c4.3-3.8,6.4-9.6,5.5-15.4l45.2-11.1c3.8-0.9,6.5-4.4,6.4-8.4v-50.4
	c0-2.5-1.1-4.9-3.1-6.5L458.5,270.4z M244.3,17.4l38.4,11L171.2,105l-51-21.8L244.3,17.4z M136.1,228.2l29.3-29.2
	c3.3-3.3,3.3-8.6,0-11.9c-3.3-3.3-8.6-3.3-11.9,0l-29.3,29.4l-90.6-44.7c-2.4-1.3-4.1-3.7-4.5-6.4c-0.4-2.7,0.7-5.5,2.7-7.3
	l70.8-64.3l104.8,45l-52.6,125.9L136.1,228.2z M209.8,354.7l-86,26.5l86-205V354.7z M187.1,486.8l63.7-68.5l51.4,68.5H187.1z
	 M320.3,483l-93.7-124.8V146.3l169.1,61.4l39.8,175.3L320.3,483z M486.8,354.4l-38.4,9.6l-13.9-61.2l18.7-15l33.6,26.9V354.4z"/>
</svg>
